<?xml version="1.0" standalone="no"?>
<!DOCTYPE svg PUBLIC "-//W3C//DTD SVG 20010904//EN"
 "http://www.w3.org/TR/2001/REC-SVG-20010904/DTD/svg10.dtd">
<svg version="1.0" xmlns="http://www.w3.org/2000/svg"
 width="150pt" height="100pt" viewBox="0 0 2000.000000 1247.000000"
 preserveAspectRatio="xMidYMid meet">
<metadata>
Created by potrace 1.16, written by Peter Selinger 2001-2019
</metadata>
<g transform="translate(0.000000,1247.000000) scale(0.100000,-0.100000)"
fill="#000000" stroke="none">
<path d="M9951 12403 c-86 -146 -1291 -2236 -1291 -2240 0 -1 20 -3 44 -3 l43
0 624 1080 c343 594 626 1080 629 1080 3 0 286 -486 629 -1080 l624 -1080 43
0 c24 0 44 2 44 4 0 12 -1328 2300 -1337 2303 -6 2 -29 -26 -52 -64z"/>
<path d="M120 6235 l0 -2815 9880 0 9880 0 0 2815 0 2815 -9880 0 -9880 0 0
-2815z m19640 870 l0 -1835 -9760 0 -9760 0 0 1835 0 1835 9760 0 9760 0 0
-1835z"/>
<path d="M1810 8420 l0 -100 140 0 140 0 0 -1200 0 -1200 -145 0 -145 0 0
-100 0 -100 375 0 375 0 0 100 0 100 -130 0 -130 0 0 303 c0 328 4 362 56 458
62 115 199 217 340 254 84 22 201 20 266 -5 61 -23 124 -82 159 -150 24 -45
24 -47 27 -452 l3 -408 -146 0 -145 0 0 -100 0 -100 380 0 380 0 0 100 0 100
-135 0 -134 0 -3 463 -3 462 -32 67 c-56 120 -154 198 -282 228 -79 19 -268 8
-351 -20 -146 -49 -274 -145 -349 -260 l-36 -55 3 857 3 858 -241 0 -240 0 0
-100z"/>
<path d="M11782 7751 c-18 -12 -41 -35 -52 -53 -40 -66 -17 -155 52 -199 25
-15 45 -19 82 -16 43 4 55 10 88 45 34 37 38 47 38 93 0 85 -47 139 -129 146
-34 3 -54 -1 -79 -16z"/>
<path d="M16915 7760 c-11 -4 -33 -22 -50 -40 -27 -28 -30 -38 -30 -95 0 -61
2 -67 37 -101 67 -67 167 -54 219 28 28 46 22 128 -12 164 -46 49 -110 67
-164 44z"/>
<path d="M4472 7149 c-176 -29 -354 -135 -457 -270 -104 -138 -155 -287 -155
-454 0 -190 66 -358 192 -491 124 -130 253 -201 420 -230 165 -29 306 -7 468
73 80 39 109 61 186 137 76 76 98 106 138 186 55 112 76 201 76 326 0 164 -57
324 -164 461 -157 200 -441 306 -704 262z m214 -200 c277 -50 480 -335 434
-608 -47 -281 -332 -488 -608 -441 -186 31 -361 179 -422 356 -67 192 -16 390
139 545 131 131 283 180 457 148z"/>
<path d="M6209 7150 c-288 -46 -528 -270 -600 -560 -8 -30 -14 -104 -14 -165
0 -60 6 -135 14 -165 66 -265 275 -477 541 -547 88 -23 272 -23 360 1 83 23
201 84 263 137 l47 41 -29 36 c-17 21 -46 55 -64 77 l-34 39 -38 -33 c-55 -48
-165 -97 -248 -112 -136 -23 -283 14 -395 98 -63 48 -146 147 -139 166 2 8
1077 432 1104 437 6 1 -41 120 -68 173 -87 173 -230 301 -397 357 -73 24 -218
34 -303 20z m216 -206 c101 -26 203 -98 265 -189 l28 -40 -457 -176 -456 -176
-3 71 c-7 162 86 339 225 432 127 84 269 112 398 78z"/>
<path d="M18210 7150 c-149 -24 -286 -96 -400 -210 -145 -145 -208 -286 -217
-485 -6 -141 12 -230 72 -352 76 -155 225 -294 383 -358 289 -117 653 -29 821
200 l21 30 -6 -127 -7 -128 232 0 231 0 0 100 0 100 -135 0 -135 0 0 600 0
600 -84 0 -84 0 -6 -92 c-4 -51 -7 -111 -9 -132 l-2 -39 -33 51 c-64 99 -200
193 -328 227 -73 19 -240 27 -314 15z m216 -201 c92 -16 215 -80 283 -147 198
-194 207 -529 17 -730 -173 -185 -417 -230 -638 -120 -185 93 -288 265 -288
478 0 155 46 267 151 373 126 126 295 179 475 146z"/>
<path d="M1013 7136 c-127 -31 -229 -112 -281 -224 -24 -50 -27 -69 -27 -162
0 -95 3 -111 28 -162 50 -103 121 -149 339 -224 193 -66 244 -97 274 -169 44
-106 -12 -235 -124 -282 -78 -32 -246 -24 -339 17 l-43 19 0 90 0 91 -90 0
-90 0 0 -148 0 -148 27 -26 c89 -83 329 -135 503 -109 155 23 271 106 333 239
27 57 32 81 35 163 6 134 -12 190 -83 267 -61 66 -125 103 -270 157 -207 77
-275 122 -295 196 -25 93 40 195 140 219 64 15 170 9 228 -15 l42 -17 0 -94 0
-94 95 0 95 0 0 149 0 149 -35 26 c-111 85 -319 126 -462 92z"/>
<path d="M9252 7130 c-153 -41 -297 -144 -381 -272 l-39 -60 -6 43 c-3 24 -8
97 -12 162 l-6 117 -214 0 -214 0 0 -95 0 -95 130 0 130 0 0 -505 0 -505 -145
0 -145 0 0 -100 0 -100 375 0 375 0 0 100 0 100 -130 0 -130 0 0 298 c0 236 3
310 15 357 56 214 276 375 515 376 122 0 201 -35 259 -116 59 -83 61 -98 61
-527 l0 -388 -140 0 -140 0 0 -100 0 -100 375 0 375 0 0 100 0 100 -130 0
-130 0 0 310 c0 286 2 315 20 371 38 111 104 194 206 259 92 58 196 90 292 91
113 0 174 -22 237 -84 89 -89 89 -90 93 -549 l3 -398 -145 0 -146 0 0 -100 0
-100 380 0 380 0 0 100 0 100 -135 0 -135 0 0 426 c0 489 -4 523 -72 624 -47
72 -109 121 -186 151 -77 30 -256 37 -360 15 -153 -32 -297 -127 -389 -255
-31 -42 -55 -67 -57 -60 -3 8 -12 37 -20 64 -32 99 -125 193 -233 236 -83 32
-277 37 -381 9z"/>
<path d="M13376 7134 c-163 -39 -315 -151 -399 -294 -17 -29 -28 -39 -31 -30
-3 8 -8 81 -11 163 l-7 147 -214 0 -214 0 0 -95 0 -95 130 0 130 0 0 -505 0
-505 -145 0 -145 0 0 -100 0 -100 375 0 375 0 0 100 0 100 -130 0 -130 0 0
303 c0 248 3 313 16 358 63 215 275 368 514 370 136 1 229 -52 288 -164 l27
-52 3 -407 3 -408 -146 0 -145 0 0 -100 0 -100 380 0 380 0 0 100 0 100 -135
0 -134 0 -3 463 -3 462 -32 67 c-55 116 -144 191 -267 224 -66 18 -253 17
-330 -2z"/>
<path d="M15436 7134 c-172 -42 -334 -166 -414 -317 l-20 -37 -7 170 -7 170
-219 0 -219 0 0 -95 0 -95 130 0 130 0 0 -505 0 -505 -140 0 -140 0 0 -100 0
-100 375 0 375 0 0 100 0 100 -131 0 -130 0 3 328 3 328 39 80 c89 181 276
294 486 295 140 0 238 -60 293 -179 21 -45 22 -61 25 -449 l3 -403 -146 0
-145 0 0 -100 0 -100 380 0 380 0 0 100 0 100 -135 0 -134 0 -3 458 c-3 452
-3 458 -26 515 -48 118 -136 199 -261 237 -77 24 -254 26 -345 4z"/>
<path d="M11470 7025 l0 -95 140 0 140 0 0 -505 0 -505 -140 0 -140 0 0 -100
0 -100 375 0 375 0 0 100 0 100 -135 0 -135 0 0 600 0 600 -240 0 -240 0 0
-95z"/>
<path d="M16590 7025 l0 -95 135 0 135 0 0 -505 0 -505 -135 0 -135 0 0 -100
0 -100 375 0 375 0 0 100 0 100 -135 0 -135 0 0 600 0 600 -240 0 -240 0 0
-95z"/>
<path d="M3458 1158 l-665 -1153 3604 -3 c1981 -1 5225 -1 7207 0 l3603 3
-665 1153 -666 1152 -43 0 c-24 0 -43 -3 -42 -7 0 -5 289 -507 642 -1118 l642
-1110 -3537 -3 c-1946 -1 -5130 -1 -7076 0 l-3537 3 638 1105 c351 608 641
1111 644 1118 4 8 -8 12 -39 12 l-44 0 -666 -1152z"/>
</g>
</svg>
